<svg width="1262" height="1254" viewBox="0 0 1262 1254" fill="none" xmlns="http://www.w3.org/2000/svg">
<rect width="1262" height="1254" rx="225" fill="#0F1117"/>
<circle cx="1031" cy="806" r="38" fill="#4E8FD4"/>
<path d="M495.833 844V781.792H493.529C490.073 801.376 479.129 817.888 460.697 831.328C442.649 844.384 418.457 850.912 388.121 850.912C356.633 850.912 328.409 843.04 303.449 827.296C278.489 811.552 258.713 788.32 244.121 757.6C229.529 726.88 222.233 689.056 222.233 644.128C222.233 599.2 229.721 561.184 244.697 530.08C259.673 498.976 280.601 475.36 307.481 459.232C334.361 443.104 365.657 435.04 401.369 435.04C437.081 435.04 467.801 443.104 493.529 459.232C519.257 474.976 539.225 497.44 553.433 526.624L491.801 562.912C484.505 545.248 473.561 530.848 458.969 519.712C444.377 508.192 425.177 502.432 401.369 502.432C381.785 502.432 364.505 506.656 349.529 515.104C334.937 523.168 323.417 535.264 314.969 551.392C306.905 567.136 302.873 586.912 302.873 610.72V675.232C302.873 698.656 306.905 718.432 314.969 734.56C323.417 750.688 335.129 762.976 350.105 771.424C365.081 779.488 382.553 783.52 402.521 783.52C418.265 783.52 432.665 781.024 445.721 776.032C458.777 770.656 469.145 762.976 476.825 752.992C484.505 742.624 488.345 729.952 488.345 714.976V689.056H409.433V625.12H561.497V844H495.833ZM893.8 844L779.176 661.984L725.608 725.344V844H649.576V441.952H725.608V564.64V640.096H728.488L785.512 564.64L885.16 441.952H972.712L832.744 609.568L984.232 844H893.8Z" fill="#EDEEF2"/>
</svg>
